<svg width="1440" height="750" viewBox="0 0 1440 750" fill="none" xmlns="http://www.w3.org/2000/svg">
<g opacity="0.8">
<mask id="mask0_2380_63" style="mask-type:alpha" maskUnits="userSpaceOnUse" x="0" y="0" width="1440" height="750">
<rect width="1440" height="750" fill="#79A44A"/>
</mask>
<g mask="url(#mask0_2380_63)">
<path fill-rule="evenodd" clip-rule="evenodd" d="M77.7635 269.521C159.452 261.324 249.74 254.587 311.41 308.781C375.437 365.047 391.065 457.235 388.316 542.428C385.663 624.645 357.235 705.657 296.803 761.467C238.435 815.371 157.087 833.729 77.7635 829.227C3.11365 824.99 -61.0378 786.669 -117.747 737.938C-180.678 683.86 -256.953 625.396 -255.991 542.428C-255.033 459.802 -177.235 403.704 -113.266 351.398C-57.5122 305.809 6.10339 276.712 77.7635 269.521Z" fill="url(#paint0_linear_2380_63)"/>
<path fill-rule="evenodd" clip-rule="evenodd" d="M1294.2 447.603C1204.25 442.342 1122.62 394.532 1064.57 325.627C1011.19 262.266 1001.16 178.788 997.967 95.9994C994.598 8.51116 988.814 -85.8751 1046.17 -152.021C1106.36 -221.421 1203.18 -258.034 1294.19 -245.602C1377.57 -234.215 1428.39 -156.759 1482.6 -92.4098C1530.17 -35.9576 1570.63 23.0642 1582.02 95.9993C1595.92 184.967 1609.39 284.48 1552.35 354.157C1492.09 427.774 1389.17 453.158 1294.2 447.603Z" fill="url(#paint1_linear_2380_63)"/>
</g>
</g>
<defs>
<linearGradient id="paint0_linear_2380_63" x1="66.3065" y1="264" x2="66.3065" y2="829.88" gradientUnits="userSpaceOnUse">
<stop stop-color="#198308" stop-opacity="0.4"/>
<stop offset="1" stop-color="white" stop-opacity="0.4"/>
</linearGradient>
<linearGradient id="paint1_linear_2380_63" x1="1295.07" y1="448.339" x2="1295.07" y2="-248" gradientUnits="userSpaceOnUse">
<stop stop-color="#198308" stop-opacity="0.4"/>
<stop offset="1" stop-color="white" stop-opacity="0.4"/>
</linearGradient>
</defs>
</svg>
